<svg version="1.1" id="Layer_1" xmlns="http://www.w3.org/2000/svg" xmlns:xlink="http://www.w3.org/1999/xlink" x="0px" y="0px"
	 width="100%" viewBox="0 0 64 64" enable-background="new 0 0 64 64" xml:space="preserve">
<path fill="#F8FDFD" opacity="1.000000" stroke="none" 
	d="
M65.000000,22.999712 
	C65.000000,37.333107 65.000000,51.166435 65.000000,64.999817 
	C43.666748,64.999878 22.333498,64.999878 1.000186,64.999939 
	C1.000124,43.666756 1.000124,22.333509 1.000062,1.000198 
	C22.333239,1.000132 43.666477,1.000132 64.999863,1.000066 
	C65.000000,8.166549 65.000000,15.333098 65.000000,22.999712 
M61.783005,34.500046 
	C61.780884,27.022524 61.765747,19.544971 61.782299,12.067491 
	C61.790215,8.492541 60.546345,5.486827 56.661873,5.410975 
	C52.552124,5.330723 51.063412,8.321878 51.064449,12.142774 
	C51.068420,26.765478 51.072437,41.388195 51.055794,56.010880 
	C51.051502,59.783623 52.351761,62.905983 56.489895,62.905838 
	C60.710808,62.905693 61.806904,59.675236 61.787182,55.938503 
	C61.751221,49.125858 61.780979,42.312862 61.783005,34.500046 
M46.006496,44.494717 
	C46.004082,38.684917 46.008533,32.875107 45.996552,27.065329 
	C45.989857,23.821062 44.566261,21.504780 41.223362,21.140211 
	C37.748756,20.761278 35.660854,23.030779 35.591389,26.120420 
	C35.352814,36.731136 35.272713,47.361580 35.753452,57.956318 
	C35.833176,59.713257 38.833790,62.417351 40.817173,62.760284 
	C43.950981,63.302132 45.878597,60.741718 45.964703,57.441864 
	C46.068581,53.460621 46.000275,49.474884 46.006496,44.494717 
M30.078178,10.130703 
	C29.558514,6.768246 27.517704,4.986530 24.218866,5.510001 
	C20.856380,6.043571 19.893875,8.615652 19.919729,11.826581 
	C19.997496,21.484587 19.986538,31.143785 19.934702,40.802113 
	C19.914955,44.481533 21.143391,47.231850 25.205095,47.127750 
	C29.315128,47.022419 30.169353,44.073803 30.138321,40.488495 
	C30.053282,30.664072 30.106007,20.838457 30.078178,10.130703 
M4.081540,20.415024 
	C4.093044,22.409914 3.471553,24.722706 4.273941,26.320402 
	C5.310999,28.385370 7.470306,31.229286 9.174325,31.248413 
	C10.966409,31.268532 14.113627,28.522589 14.352793,26.684052 
	C15.054092,21.292950 15.054680,15.693954 14.358527,10.301776 
	C14.118183,8.440157 11.191857,5.848132 9.190906,5.538488 
	C6.034162,5.049987 4.214486,7.694300 4.111269,10.977768 
	C4.022505,13.801489 4.085625,16.629986 4.081540,20.415024 
M13.976405,39.802185 
	C11.889039,38.891205 9.409662,36.836952 7.821392,37.381546 
	C6.136210,37.959373 4.492448,40.911819 4.252807,42.991154 
	C3.723633,47.582706 4.061397,52.277382 4.095798,56.929611 
	C4.121454,60.399323 5.715244,62.838753 9.323422,62.940113 
	C12.743572,63.036186 14.530592,60.596100 14.599633,57.483440 
	C14.724372,51.859699 14.399819,46.225990 13.976405,39.802185 
M42.072826,15.698106 
	C45.093830,14.504921 46.985638,12.141710 45.577648,9.200564 
	C44.733166,7.436534 41.806389,5.412905 40.124435,5.654730 
	C38.394817,5.903409 35.990803,8.631628 35.753078,10.511450 
	C35.330261,13.854901 37.667103,15.912760 42.072826,15.698106 
M20.460802,55.339462 
	C21.149727,57.632206 21.373665,60.280361 22.733917,62.059967 
	C23.364918,62.885498 26.687090,62.662544 27.913683,61.744751 
	C29.176928,60.799538 30.064133,58.364388 29.904179,56.697430 
	C29.493464,52.417175 25.174400,51.562416 20.460802,55.339462 
z"/>
<path fill="#0E9CA9" opacity="1.000000" stroke="none" 
	d="
M61.783161,35.000031 
	C61.780979,42.312862 61.751221,49.125858 61.787182,55.938503 
	C61.806904,59.675236 60.710808,62.905693 56.489895,62.905838 
	C52.351761,62.905983 51.051502,59.783623 51.055794,56.010880 
	C51.072437,41.388195 51.068420,26.765478 51.064449,12.142774 
	C51.063412,8.321878 52.552124,5.330723 56.661873,5.410975 
	C60.546345,5.486827 61.790215,8.492541 61.782299,12.067491 
	C61.765747,19.544971 61.780884,27.022524 61.783161,35.000031 
z"/>
<path fill="#0E9CA8" opacity="1.000000" stroke="none" 
	d="
M46.006496,44.992905 
	C46.000275,49.474884 46.068581,53.460621 45.964703,57.441864 
	C45.878597,60.741718 43.950981,63.302132 40.817173,62.760284 
	C38.833790,62.417351 35.833176,59.713257 35.753452,57.956318 
	C35.272713,47.361580 35.352814,36.731136 35.591389,26.120420 
	C35.660854,23.030779 37.748756,20.761278 41.223362,21.140211 
	C44.566261,21.504780 45.989857,23.821062 45.996552,27.065329 
	C46.008533,32.875107 46.004082,38.684917 46.006496,44.992905 
z"/>
<path fill="#0499A6" opacity="1.000000" stroke="none" 
	d="
M30.091187,10.572008 
	C30.106007,20.838457 30.053282,30.664072 30.138321,40.488495 
	C30.169353,44.073803 29.315128,47.022419 25.205095,47.127750 
	C21.143391,47.231850 19.914955,44.481533 19.934702,40.802113 
	C19.986538,31.143785 19.997496,21.484587 19.919729,11.826581 
	C19.893875,8.615652 20.856380,6.043571 24.218866,5.510001 
	C27.517704,4.986530 29.558514,6.768246 30.091187,10.572008 
z"/>
<path fill="#109DAA" opacity="1.000000" stroke="none" 
	d="
M4.081563,19.935696 
	C4.085625,16.629986 4.022505,13.801489 4.111269,10.977768 
	C4.214486,7.694300 6.034162,5.049987 9.190906,5.538488 
	C11.191857,5.848132 14.118183,8.440157 14.358527,10.301776 
	C15.054680,15.693954 15.054092,21.292950 14.352793,26.684052 
	C14.113627,28.522589 10.966409,31.268532 9.174325,31.248413 
	C7.470306,31.229286 5.310999,28.385370 4.273941,26.320402 
	C3.471553,24.722706 4.093044,22.409914 4.081563,19.935696 
z"/>
<path fill="#0F9DAA" opacity="1.000000" stroke="none" 
	d="
M14.119646,40.199314 
	C14.399819,46.225990 14.724372,51.859699 14.599633,57.483440 
	C14.530592,60.596100 12.743572,63.036186 9.323422,62.940113 
	C5.715244,62.838753 4.121454,60.399323 4.095798,56.929611 
	C4.061397,52.277382 3.723633,47.582706 4.252807,42.991154 
	C4.492448,40.911819 6.136210,37.959373 7.821392,37.381546 
	C9.409662,36.836952 11.889039,38.891205 14.119646,40.199314 
z"/>
<path fill="#149EAB" opacity="1.000000" stroke="none" 
	d="
M41.697529,15.760757 
	C37.667103,15.912760 35.330261,13.854901 35.753078,10.511450 
	C35.990803,8.631628 38.394817,5.903409 40.124435,5.654730 
	C41.806389,5.412905 44.733166,7.436534 45.577648,9.200564 
	C46.985638,12.141710 45.093830,14.504921 41.697529,15.760757 
z"/>
<path fill="#0C9BA8" opacity="1.000000" stroke="none" 
	d="
M20.665581,55.015461 
	C25.174400,51.562416 29.493464,52.417175 29.904179,56.697430 
	C30.064133,58.364388 29.176928,60.799538 27.913683,61.744751 
	C26.687090,62.662544 23.364918,62.885498 22.733917,62.059967 
	C21.373665,60.280361 21.149727,57.632206 20.665581,55.015461 
z"/>
</svg>